<svg xmlns="http://www.w3.org/2000/svg" width="36" height="31.8" viewBox="0 0 36 31.8">
  <g id="ic_historico" transform="translate(15119 -10036)">
    <g id="historico" transform="translate(-15119.5 10035.5)">
      <path id="Caminho_81_00000173151592830531794840000005699110355517509523_" d="M18.5,8.3" fill="none" stroke="#708380" stroke-linecap="round" stroke-linejoin="round" stroke-width="3"/>
      <g id="casa" transform="translate(-21.4 -20.025)">
        <path id="Caminho_63" d="M32.3,43V34.2a.792.792,0,0,1,.5-.8c.7-.3,1.4-.7,2.1-1,.1,0,.2-.2.2-.3V29.8a.67.67,0,0,1,.4-.7c1.3-.8,2.7-1.6,4-2.4a.608.608,0,0,1,.8,0c2.3,1.4,4.5,2.7,6.8,4.1a.755.755,0,0,1,.4.7V43h.7a.684.684,0,0,1,.7.7h0a.684.684,0,0,1-.7.7H31.7a.669.669,0,0,1-.7-.6c0-.3.3-.7.6-.7h.1A1.268,1.268,0,0,1,32.3,43Zm6.9-11.3h-.1c-1.8.9-3.5,1.8-5.3,2.6a.367.367,0,0,0-.1.3V43h4.1V39.7a.76.76,0,0,1,.6-.8h2.8a.76.76,0,0,1,.8.6V43h1.4V36.1H36.5v4.8a.842.842,0,0,1-.4.7c-.4.1-.8,0-.9-.4,0-.1-.1-.2,0-.3V35.6c-.1-.4.2-.7.6-.8H44a.641.641,0,0,1,.8.6V43h1.4V31.9a.349.349,0,0,0-.1-.2l-6-3.7a.187.187,0,0,0-.3,0c-1,.6-1.9,1.2-2.9,1.7a.67.67,0,0,0-.4.7v1.1a.349.349,0,0,0,.2-.1L39.6,30a.651.651,0,0,1,.9.2.6.6,0,0,1,.1.4v2a.7.7,0,0,1-1.4,0h0q0-.45,0-.9Zm0,11.3h1.4V40.3H39.2Z" fill="#708380"/>
      </g>
      <g id="Grupo_16227" data-name="Grupo 16227">
        <path id="Caminho_81_00000135685205662295234760000006727074308334166454_" d="M18.5,31.3c0-2.8-2.3-4.3-5.1-4.3H1.5V1.5H11.7c3,0,5.9.5,6.8,3.2" fill="none" stroke="#708380" stroke-linecap="round" stroke-linejoin="round" stroke-width="2"/>
        <path id="Caminho_81_00000124147593665959461960000016783530541464788908_" d="M18.5,4.7c.9-2.7,3.8-3.2,6.8-3.2H35.5V27H23.6c-2.8,0-5.1,1.4-5.1,4.3" fill="none" stroke="#708380" stroke-linecap="round" stroke-linejoin="round" stroke-width="2"/>
      </g>
    </g>
  </g>
</svg>
