<svg xmlns="http://www.w3.org/2000/svg" width="26" height="26.026" viewBox="0 0 26 26.026">
  <g id="ic_imoveis" transform="translate(-21.4 -20.025)">
    <path id="Caminho_63" data-name="Caminho 63" d="M23.367,44.026V31.243a1.228,1.228,0,0,1,.766-1.229c1.012-.477,2-1,2.993-1.475a.41.41,0,0,0,.26-.434c-.014-1.128,0-2.256-.014-3.369a1.105,1.105,0,0,1,.578-1.027c1.952-1.157,3.89-2.328,5.842-3.5a1.022,1.022,0,0,1,1.171,0c3.283,1.967,6.565,3.948,9.862,5.914a1.134,1.134,0,0,1,.564,1.07V44.041h.954A1.016,1.016,0,0,1,47.4,45.053a1,1,0,0,1-1.056,1H22.47a1,1,0,1,1,0-2A5.79,5.79,0,0,1,23.367,44.026Zm10.007-16.37a1.144,1.144,0,0,1-.188.072c-2.545,1.273-5.076,2.545-7.621,3.8-.2.1-.2.231-.2.4V44.012h6V39.153a1.011,1.011,0,0,1,1.113-1.128h3.745a1.013,1.013,0,0,1,1.128,1.142V44h1.981V34.034H29.353v6.9a1.042,1.042,0,0,1-.622,1.027,1.009,1.009,0,0,1-1.374-1.012V33.2a1.024,1.024,0,0,1,1.171-1.171H40.184A1.033,1.033,0,0,1,41.37,33.21v10.8h2c0-.072.014-.13.014-.2q0-8-.014-16.008a.439.439,0,0,0-.188-.333l-8.59-5.162a.369.369,0,0,0-.448.014c-1.417.853-2.82,1.706-4.237,2.531a.915.915,0,0,0-.55.969c.043.506.014,1.027.014,1.576.145-.072.246-.116.333-.159l4.165-2.082a1,1,0,0,1,1.5.94v2.878a1,1,0,1,1-2,0C33.359,28.553,33.373,28.119,33.373,27.657Zm0,16.341H35.34V40.035H33.373Z" transform="translate(0)" fill="#708380"/>
  </g>
</svg>
