<svg xmlns="http://www.w3.org/2000/svg" width="66.968" height="57.507" viewBox="0 0 66.968 57.507">
  <g id="ic_landing_viagem" transform="translate(-9.998 -79.23)">
    <g id="Grupo_16232" data-name="Grupo 16232" transform="translate(9.998 79.23)">
      <path id="Caminho_87" data-name="Caminho 87" d="M307.319-431.542a4.567,4.567,0,0,0-2.148,1.621c-.77.986-.851,1.553-.851,5.443v3.484h4.186v-1.526c0-2.39.446-3.4,1.8-4.079l.689-.338h13.4l.7.351c1.35.675,1.783,1.661,1.783,4.065v1.526h4.2l-.04-3.754-.04-3.741-.378-.756a4.989,4.989,0,0,0-2.228-2.188c-.635-.3-.7-.3-10.494-.324C308.615-431.785,307.994-431.785,307.319-431.542Z" transform="translate(-284.208 431.77)" fill="#e3a716"/>
      <path id="Caminho_88" data-name="Caminho 88" d="M115.171-295.168c-.432.176-.581.553-.581,1.472v.824h9.049v-.864a1.728,1.728,0,0,0-.256-1.175l-.256-.324-3.836-.027A39.68,39.68,0,0,0,115.171-295.168Z" transform="translate(-107.443 304.593)" fill="#e3a716"/>
      <path id="Caminho_89" data-name="Caminho 89" d="M753.551-295.168c-.433.176-.581.553-.581,1.472v.824h9.049v-.864a1.724,1.724,0,0,0-.257-1.175l-.256-.324-3.836-.027A39.679,39.679,0,0,0,753.551-295.168Z" transform="translate(-702.199 304.593)" fill="#e3a716"/>
      <path id="Caminho_90" data-name="Caminho 90" d="M11.771-242.157a3.936,3.936,0,0,0-.986.783c-.838,1.026-.81-.081-.77,21.5l.04,19.637.284.541a3.461,3.461,0,0,0,1.607,1.567c.473.216.932.257,3.957.257h3.4v-44.57H15.836C12.554-242.441,12.31-242.427,11.771-242.157Z" transform="translate(-9.998 255.378)" fill="#e3a716"/>
      <path id="Caminho_91" data-name="Caminho 91" d="M209.46-220.165v22.285h39.708v-44.57H209.46ZM222.4-236.035l1.837.892,3.214,3.2a25.572,25.572,0,0,1,3.3,3.579c.081.365-.108.581-2.863,3.35-2.242,2.228-3.039,2.958-3.3,2.958s-1.134-.8-3.62-3.282l-3.3-3.268-.864-1.783c-1.242-2.566-1.256-2.5.661-4.457,1.648-1.7,2.12-2.066,2.715-2.066A10.593,10.593,0,0,1,222.4-236.035Zm22.987,15.869v8.644h-7.023v-17.287h7.023Zm-20.934,12.493v4.255h-8.509v-8.509h8.509Z" transform="translate(-195.83 255.387)" fill="#e3a716"/>
      <path id="Caminho_92" data-name="Caminho 92" d="M346.573-118.818a1.373,1.373,0,0,0-.743,1.108,1.481,1.481,0,0,0,.743,1.108,1,1,0,0,0,1.31-.23A1.2,1.2,0,0,0,346.573-118.818Z" transform="translate(-322.881 140.318)" fill="#e3a716"/>
      <path id="Caminho_93" data-name="Caminho 93" d="M853.77-220.175v22.285h3.417c3.011,0,3.471-.04,3.944-.257a3.461,3.461,0,0,0,1.607-1.567l.284-.541.04-19.719c.04-21.677.081-20.38-.783-21.434a3.418,3.418,0,0,0-.986-.769c-.541-.27-.81-.284-4.052-.284H853.77Z" transform="translate(-796.111 255.397)" fill="#e3a716"/>
    </g>
  </g>
</svg>
