<svg xmlns="http://www.w3.org/2000/svg" width="81.4" height="81.401" viewBox="0 0 81.4 81.401">
  <path id="ic_landing_classificacao" d="M35.573,20.787,24.582,2.471A5.087,5.087,0,0,0,20.22,0H2.548A2.544,2.544,0,0,0,.464,4l17.69,25.272A32.9,32.9,0,0,1,35.573,20.787ZM78.852,0H61.181a5.087,5.087,0,0,0-4.363,2.471L45.828,20.787a32.913,32.913,0,0,1,17.418,8.487L80.936,4A2.544,2.544,0,0,0,78.852,0ZM40.7,25.438A27.981,27.981,0,1,0,68.682,53.419,27.982,27.982,0,0,0,40.7,25.438Zm14.709,25-6.03,5.876,1.426,8.3a1.826,1.826,0,0,1-2.647,1.922L40.7,62.621,33.244,66.54A1.825,1.825,0,0,1,30.6,64.618l1.426-8.3-6.03-5.876A1.826,1.826,0,0,1,27,47.325l8.336-1.215,3.725-7.555a1.829,1.829,0,0,1,3.277,0l3.725,7.555L54.4,47.325a1.826,1.826,0,0,1,1.01,3.115Z" transform="translate(0)" fill="#e3a716"/>
</svg>
