<svg xmlns="http://www.w3.org/2000/svg" width="46.923" height="17.941" viewBox="0 0 46.923 17.941">
  <g id="ic_minhas_trocas" transform="translate(-48 -387)">
    <g id="Grupo_2906" data-name="Grupo 2906" transform="translate(34 -5)">
      <g id="casa" transform="translate(21.6 371.975)">
        <path id="Caminho_63" data-name="Caminho 63" d="M22.756,36.57V27.758a.847.847,0,0,1,.528-.847c.7-.329,1.376-.688,2.063-1.017a.282.282,0,0,0,.179-.3c-.01-.778,0-1.555-.01-2.323a.762.762,0,0,1,.4-.708c1.346-.8,2.682-1.6,4.027-2.412a.7.7,0,0,1,.807,0c2.263,1.356,4.526,2.721,6.8,4.077a.782.782,0,0,1,.389.738V36.58H38.6a.7.7,0,0,1,.728.7.693.693,0,0,1-.728.688H22.138a.69.69,0,1,1,0-1.376A3.991,3.991,0,0,1,22.756,36.57Zm6.9-11.284a.788.788,0,0,1-.13.05c-1.754.877-3.5,1.754-5.253,2.622-.14.07-.14.159-.14.279V36.56h4.137V33.211a.7.7,0,0,1,.768-.778h2.582a.7.7,0,0,1,.778.788v3.33h1.366V29.682H26.883v4.755a.718.718,0,0,1-.429.708.7.7,0,0,1-.947-.7V29.1a.706.706,0,0,1,.807-.807h8.035a.712.712,0,0,1,.817.817V36.56h1.376c0-.05.01-.09.01-.14q0-5.518-.01-11.035a.3.3,0,0,0-.13-.229L30.491,21.6a.254.254,0,0,0-.309.01c-.977.588-1.944,1.176-2.921,1.745a.631.631,0,0,0-.379.668c.03.349.01.708.01,1.087.1-.05.169-.08.229-.11l2.871-1.435a.686.686,0,0,1,1.037.648v1.984a.688.688,0,1,1-1.376,0C29.644,25.9,29.654,25.6,29.654,25.286Zm0,11.264H31.01V33.819H29.654Z" transform="translate(0)" fill="#708380"/>
      </g>
      <g id="Icon_feather-user" data-name="Icon feather-user" transform="translate(9 388.5)">
        <path id="Caminho_75" data-name="Caminho 75" d="M19.507,27.565V25.877A3.377,3.377,0,0,0,16.13,22.5H9.377A3.377,3.377,0,0,0,6,25.877v1.688" transform="translate(0 -7.87)" fill="none" stroke="#708380" stroke-linecap="round" stroke-linejoin="round" stroke-width="2"/>
        <path id="Caminho_76" data-name="Caminho 76" d="M18.753,7.877A3.377,3.377,0,1,1,15.377,4.5,3.377,3.377,0,0,1,18.753,7.877Z" transform="translate(-2.623)" fill="none" stroke="#708380" stroke-linecap="round" stroke-linejoin="round" stroke-width="2"/>
      </g>
    </g>
    <g id="Grupo_2909" data-name="Grupo 2909" transform="translate(-5.364 -145.271)">
      <path id="Path_186" data-name="Path 186" d="M9.734,7.99H8.611A2.207,2.207,0,0,1,6.589,6.717L5.241,4.1A3.832,3.832,0,0,0,1.872,2H0V3.5H1.872A2.207,2.207,0,0,1,3.893,4.77L5.241,7.391a3.832,3.832,0,0,0,3.369,2.1H9.734v1.5l2.995-2.246L9.734,6.492Z" transform="translate(70 535.498)" fill="#708380"/>
      <g id="Grupo_2908" data-name="Grupo 2908" transform="translate(70 536)">
        <g id="Grupo_2907" data-name="Grupo 2907">
          <path id="Path_187" data-name="Path 187" d="M9.074,3.669a2.2,2.2,0,0,1,1.647-.674h1.123v1.5l2.995-2.246L11.844,0V1.5H10.721A3.511,3.511,0,0,0,8.4,2.321a4.18,4.18,0,0,1,.374.6Z" transform="translate(-2.11)" fill="#708380"/>
          <path id="Path_188" data-name="Path 188" d="M3.519,9.1a2.2,2.2,0,0,1-1.647.674H0v1.5H1.872a3.511,3.511,0,0,0,2.321-.824,4.179,4.179,0,0,1-.374-.6Z" transform="translate(0 -2.286)" fill="#708380"/>
        </g>
      </g>
    </g>
  </g>
</svg>
