<svg xmlns="http://www.w3.org/2000/svg" width="26.596" height="22.986" viewBox="0 0 26.596 22.986">
  <g id="ic_solicitacoes" transform="translate(-21 -679)">
    <g id="pedido_troca" transform="translate(-4.037 643)">
      <path id="Caminho_74" data-name="Caminho 74" d="M51.562,47.616V40.692c0-1.964.18-4.452-2.473-4.692H28.764c-1.319,0-2.638-.015-3.358,1.364-.585,1.124-.3,2.908-.3,4.107v6.6c0,1.3-.3,3.133.555,4.242,1.139,1.469,3.792.974,5.426.974h4.856v4.961a.779.779,0,0,0,1.439.39q1.956-2.676,3.9-5.351h4.766c1.6,0,4.062.465,5.081-1.124C51.892,50.959,51.562,48.965,51.562,47.616Zm-1.544,2.7c-.015.854-.345,1.394-1.259,1.424-1.109.045-2.233,0-3.343,0H41.669c-.675,0-1.109-.03-1.559.54-.914,1.154-1.769,2.353-2.623,3.567V52.518a.794.794,0,0,0-.779-.779H32.571c-1.6,0-3.3.15-4.886,0-1.394-.135-1.034-2.053-1.034-3.058V42.64a35.913,35.913,0,0,1,0-4.017c.15-1.319,1.3-1.094,2.278-1.094h20.16c1.124.09.929,1.394.929,2.173v3.552C50.018,45.608,50.078,47.976,50.018,50.314Z" transform="translate(0 0)" fill="#708380"/>
    </g>
    <path id="Icon_awesome-exchange-alt" data-name="Icon awesome-exchange-alt" d="M0,6.838V6.423A.622.622,0,0,1,.622,5.8H9.947V4.558a.622.622,0,0,1,1.061-.44l2.072,2.072a.622.622,0,0,1,0,.879L11.009,9.142A.622.622,0,0,1,9.947,8.7V7.459H.622A.622.622,0,0,1,0,6.838Zm12.641,3.937H3.316V9.532a.622.622,0,0,0-1.061-.44L.182,11.165a.622.622,0,0,0,0,.879l2.072,2.072a.622.622,0,0,0,1.061-.44V12.433h9.326a.622.622,0,0,0,.622-.622V11.4A.622.622,0,0,0,12.641,10.775Z" transform="translate(28 678.717)" fill="#708380"/>
  </g>
</svg>
