<svg xmlns="http://www.w3.org/2000/svg" width="24.582" height="22.627" viewBox="0 0 24.582 22.627">
  <g id="ic_voltar_site" transform="translate(0 -19.453)">
    <path id="Caminho_80" data-name="Caminho 80" d="M18.876,23.141H8.382l.879-2.15a1.117,1.117,0,0,0-1.674-1.337L.481,24.59a1.119,1.119,0,0,0,.058,1.876l7.43,4.512a1.121,1.121,0,0,0,1.592-1.442L8.585,27.47H18.876a1.389,1.389,0,0,1,1.377,1.389v7.527a1.369,1.369,0,0,1-1.377,1.366H7.487a1.839,1.839,0,0,0-1.84,1.839v.65a1.84,1.84,0,0,0,1.84,1.84H18.876a5.7,5.7,0,0,0,5.706-5.695V28.859A5.723,5.723,0,0,0,18.876,23.141Z" transform="translate(0 0)" fill="#708380"/>
  </g>
</svg>
