<svg xmlns="http://www.w3.org/2000/svg" width="91.233" height="108" viewBox="0 0 91.233 108">
  <path id="im_aguardando" d="M93.218,104.176H91.881c-1.7,0-3.146-.236-3.329-1.94v-.026C84.724,66.586,62.286,65.9,62.286,57.516s22.465-9.07,26.266-44.694V12.8c.183-1.7,1.625-1.94,3.329-1.94h1.337a3.759,3.759,0,0,0,3.775-3.486,3.674,3.674,0,0,0-3.67-3.853H9.544A3.759,3.759,0,0,0,5.769,7a3.674,3.674,0,0,0,3.67,3.853h1.442c1.7,0,3.146.236,3.329,1.94v.026c3.827,35.624,26.266,36.306,26.266,44.694S18.011,66.586,14.21,102.21v.026c-.183,1.7-1.625,1.94-3.329,1.94H9.544a3.759,3.759,0,0,0-3.775,3.486,3.674,3.674,0,0,0,3.67,3.853H93.322a3.659,3.659,0,0,0,3.67-3.853A3.759,3.759,0,0,0,93.218,104.176ZM27.081,95.211C34.6,74.292,47.947,76.835,47.947,68.578V54c0-5.085-9.647-8.624-15.676-16.882a2.052,2.052,0,0,1,1.7-3.25H68.813a2.041,2.041,0,0,1,1.756,3.2C64.645,45.353,54.815,48.918,54.815,54V68.578c0,8.179,12.818,5.95,20.918,26.633.734,1.861.183,4.194-1.809,4.194H28.889C26.871,99.4,26.4,97.1,27.081,95.211Z" transform="translate(-5.764 -3.516)" fill="#f5a800"/>
</svg>
