<svg xmlns="http://www.w3.org/2000/svg" width="110.088" height="67.963" viewBox="0 0 110.088 67.963">
  <g id="logo_topo" transform="translate(-16.4 -20.1)">
    <g id="XMLID_117_" transform="translate(16.4 20.1)">
      <path id="XMLID_118_" d="M21.36,42.6a4.96,4.96,0,1,0,4.96,4.96,4.961,4.961,0,0,0-4.96-4.96" transform="translate(-16.4 -25.942)" fill="#f5a800"/>
      <path id="XMLID_119_" d="M88.96,30.021A4.96,4.96,0,1,0,84,25.06a4.961,4.961,0,0,0,4.96,4.96" transform="translate(-33.953 -20.1)" fill="#f5a800"/>
      <path id="XMLID_120_" d="M74.887,35.9,54.6,68.4,29.8,51.3,55.416,92.166,74.887,37.085,94.431,92.166,120.047,51.3l-24.8,17.1Z" transform="translate(-19.879 -24.203)" fill="#f5a800"/>
      <path id="XMLID_121_" d="M156.66,42.6a4.96,4.96,0,1,0,4.96,4.96,4.961,4.961,0,0,0-4.96-4.96" transform="translate(-51.532 -25.942)" fill="#f5a800"/>
    </g>
  </g>
</svg>
