<svg id="logo_rodape" xmlns="http://www.w3.org/2000/svg" width="88.437" height="54.597" viewBox="0 0 88.437 54.597">
  <path id="XMLID_118_" d="M20.385,42.6a3.985,3.985,0,1,0,3.985,3.985A3.985,3.985,0,0,0,20.385,42.6" transform="translate(-16.4 -29.218)" fill="#fff"/>
  <path id="XMLID_119_" d="M87.985,28.069A3.985,3.985,0,1,0,84,24.085a3.985,3.985,0,0,0,3.985,3.985" transform="translate(-43.796 -20.1)" fill="#fff"/>
  <path id="XMLID_120_" d="M66.019,35.9l-16.3,26.109L29.8,48.271,50.378,81.1,66.019,36.852,81.72,81.1,102.3,48.271,82.375,62.009Z" transform="translate(-21.831 -26.503)" fill="#fff"/>
  <path id="XMLID_121_" d="M155.685,42.6a3.985,3.985,0,1,0,3.985,3.985,3.985,3.985,0,0,0-3.985-3.985" transform="translate(-71.232 -29.218)" fill="#fff"/>
</svg>
