<svg xmlns="http://www.w3.org/2000/svg" width="458.417" height="68.037" viewBox="0 0 458.417 68.037">
  <g id="logo_langing" transform="translate(-16.4 -20.1)">
    <line id="Linha_1" data-name="Linha 1" y2="41.977" transform="translate(375.019 46.086)" fill="#d6d1c4" stroke="#f5a800" stroke-miterlimit="10" stroke-width="3"/>
    <g id="XMLID_117_" transform="translate(16.4 20.1)">
      <path id="XMLID_118_" d="M21.36,42.6a4.96,4.96,0,1,0,4.96,4.96,4.961,4.961,0,0,0-4.96-4.96" transform="translate(-16.4 -25.942)" fill="#f5a800"/>
      <path id="XMLID_119_" d="M88.96,30.021A4.96,4.96,0,1,0,84,25.06a4.961,4.961,0,0,0,4.96,4.96" transform="translate(-33.953 -20.1)" fill="#f5a800"/>
      <path id="XMLID_120_" d="M74.887,35.9,54.6,68.4,29.8,51.3,55.416,92.166,74.887,37.085,94.431,92.166,120.047,51.3l-24.8,17.1Z" transform="translate(-19.879 -24.203)" fill="#f5a800"/>
      <path id="XMLID_121_" d="M156.66,42.6a4.96,4.96,0,1,0,4.96,4.96,4.961,4.961,0,0,0-4.96-4.96" transform="translate(-51.532 -25.942)" fill="#f5a800"/>
    </g>
    <g id="XMLID_122_" transform="translate(135.594 46.086)">
      <path id="XMLID_123_" d="M177.4,55.9h13.548l9.624,20.359,13.474-20.211h.222l13.4,20.211,9.55-20.359h13.622L230.482,96.767h-.74L213.973,74.853,198.5,96.767h-.666Z" transform="translate(-177.4 -55.382)" fill="#fff"/>
      <path id="XMLID_124_" d="M296.875,64.3v7.848h19.693v8.07H296.875v8.366h22.95v8.07H285.4V56.3h34.426v8Z" transform="translate(-205.444 -55.486)" fill="#fff"/>
      <path id="XMLID_127_" d="M335.2,76.226A21.287,21.287,0,0,1,356.151,55.2c5.256.074,9.921,2.147,14.14,6.219l-4.664,6.367a13.646,13.646,0,0,0-9.55-4.368,13.08,13.08,0,0,0-12.66,12.808c0,7.181,6.441,12.734,12.66,12.734,3.7,0,6.885-2,9.624-4.59l4.664,6.589c-3.554,3.554-7.922,6.219-13.992,6.219A21.22,21.22,0,0,1,335.2,76.226" transform="translate(-218.375 -55.2)" fill="#fff"/>
      <path id="XMLID_128_" d="M412.266,91.358H396.127l-2.591,5.627H384.8L404.049,55.6h.222l19.323,41.385h-8.81ZM409.083,84.4,404.2,73.59,399.237,84.4Z" transform="translate(-231.254 -55.304)" fill="#fff"/>
      <path id="XMLID_131_" d="M474.426,55.892V97.129h-.37L448.588,73.808V96.463H440V55.3h.444l25.32,23.247V55.892Z" transform="translate(-245.588 -55.226)" fill="#fff"/>
    </g>
    <g id="XMLID_132_" transform="translate(385.532 41.866)">
      <path id="XMLID_133_" d="M515,73.22V55.6h.888V73.22Z" transform="translate(-515 -51.084)" fill="#fff"/>
      <path id="XMLID_135_" d="M530.539,55.6V73.22h-.888V58.043l-4.294,11.919-4.368-11.993V73.146H520.1V55.6h.888l4.368,11.845L529.65,55.6Z" transform="translate(-516.324 -51.084)" fill="#fff"/>
      <path id="XMLID_137_" d="M541.976,71.71a3.315,3.315,0,0,1-1.481-.3,3.382,3.382,0,0,1-1.184-.814,4.234,4.234,0,0,1-.814-1.185,3.315,3.315,0,0,1-.3-1.481V57.644a3.315,3.315,0,0,1,.3-1.481,3.384,3.384,0,0,1,.814-1.185,4.232,4.232,0,0,1,1.184-.814,3.85,3.85,0,0,1,2.961,0,3.947,3.947,0,0,1,2,2,3.314,3.314,0,0,1,.3,1.481V67.934a3.314,3.314,0,0,1-.3,1.481,3.381,3.381,0,0,1-.814,1.185,4.233,4.233,0,0,1-1.184.814A3.53,3.53,0,0,1,541.976,71.71Zm0-16.954a2.971,2.971,0,0,0-1.111.222,2.662,2.662,0,0,0-.888.592,3.1,3.1,0,0,0-.592.888,2.97,2.97,0,0,0-.222,1.111V67.86a2.7,2.7,0,0,0,.222,1.111,4.2,4.2,0,0,0,.592.962,3.1,3.1,0,0,0,.888.592,2.887,2.887,0,0,0,2.221,0,2.661,2.661,0,0,0,.888-.592,2.612,2.612,0,0,0,.592-.962,2.97,2.97,0,0,0,.222-1.111V57.644a2.97,2.97,0,0,0-.222-1.111,2.661,2.661,0,0,0-.592-.888,3.1,3.1,0,0,0-.888-.592A2.089,2.089,0,0,0,541.976,54.756Zm2.3-5.256.3.814-5.034,1.555-.3-.814Z" transform="translate(-521.024 -49.5)" fill="#fff"/>
      <path id="XMLID_141_" d="M561.062,55.6l-3.776,17.62h-1.11L552.4,55.6h.888l3.48,16.213L560.322,55.6Z" transform="translate(-524.711 -51.084)" fill="#fff"/>
      <path id="XMLID_143_" d="M568.188,56.414v6.663h4.96v.888h-4.96v8.366h6v.888H567.3V55.6h6.885v.888h-6Z" transform="translate(-528.58 -51.084)" fill="#fff"/>
      <path id="XMLID_145_" d="M579.9,73.22V55.6h.888V73.22Z" transform="translate(-531.852 -51.084)" fill="#fff"/>
      <path id="XMLID_147_" d="M588.794,63.84c.444.37.888.74,1.259,1.111a5.9,5.9,0,0,1,1.11,1.259,5.785,5.785,0,0,1,.814,1.481,4.861,4.861,0,0,1,.3,1.851,3.314,3.314,0,0,1-.3,1.481,3.383,3.383,0,0,1-.814,1.185,4.232,4.232,0,0,1-1.184.814,3.85,3.85,0,0,1-2.961,0,3.383,3.383,0,0,1-1.185-.814,4.232,4.232,0,0,1-.814-1.185,3.315,3.315,0,0,1-.3-1.481h.888a2.705,2.705,0,0,0,.222,1.111,2.661,2.661,0,0,0,.592.888,3.1,3.1,0,0,0,.888.592,2.887,2.887,0,0,0,2.221,0,2.662,2.662,0,0,0,.888-.592,3.1,3.1,0,0,0,.592-.888,2.969,2.969,0,0,0,.222-1.111,3.432,3.432,0,0,0-.3-1.555,4.335,4.335,0,0,0-.74-1.259,14.214,14.214,0,0,0-1.036-1.111c-.37-.37-.814-.666-1.185-1.036a15.519,15.519,0,0,1-1.259-1.036,8.417,8.417,0,0,1-1.11-1.185,8.718,8.718,0,0,1-.814-1.407,4.48,4.48,0,0,1-.3-1.777,3.314,3.314,0,0,1,.3-1.481,3.382,3.382,0,0,1,.814-1.185A4.232,4.232,0,0,1,586.8,55.7a3.85,3.85,0,0,1,2.961,0,3.947,3.947,0,0,1,2,2,3.315,3.315,0,0,1,.3,1.481h-.518a2.972,2.972,0,0,0-.222-1.111,2.663,2.663,0,0,0-.592-.888,3.1,3.1,0,0,0-.888-.592,2.887,2.887,0,0,0-2.221,0,2.662,2.662,0,0,0-.888.592,3.1,3.1,0,0,0-.592.888,2.971,2.971,0,0,0-.222,1.111,3.119,3.119,0,0,0,.3,1.481,3.756,3.756,0,0,0,.666,1.185,6.393,6.393,0,0,0,.962,1.036A11.7,11.7,0,0,0,588.794,63.84Z" transform="translate(-533.047 -51.032)" fill="#fff"/>
      <path id="XMLID_149_" d="M515.888,88.788v6.663h4.96v.888h-4.96v8.366h6v.888H515V87.9h6.885v.888Z" transform="translate(-515 -59.471)" fill="#fff"/>
      <path id="XMLID_151_" d="M530.906,96.636,527.5,87.9h.888l2.961,7.551,2.961-7.551h.962l-3.406,8.736,3.48,8.884h-.962l-2.961-7.625-2.961,7.625H527.5Z" transform="translate(-518.246 -59.471)" fill="#fff"/>
      <path id="XMLID_153_" d="M544.78,87.9a3.315,3.315,0,0,1,1.481.3,3.947,3.947,0,0,1,2,2,3.209,3.209,0,0,1,.3,1.407v3.628a3,3,0,0,1-.3,1.407,2.929,2.929,0,0,1-.74,1.111,4.314,4.314,0,0,1-1.111.814,4.494,4.494,0,0,1-1.333.37h-2.887v6.589H541.3V87.9h3.48Zm2.813,3.776a2.971,2.971,0,0,0-.222-1.111,2.662,2.662,0,0,0-.592-.888,3.1,3.1,0,0,0-.888-.592,2.971,2.971,0,0,0-1.111-.222h-2.517v9.328h2.591a2.97,2.97,0,0,0,1.11-.222,2.662,2.662,0,0,0,.888-.592,6.171,6.171,0,0,0,.592-.888,2.971,2.971,0,0,0,.222-1.111v-3.7Z" transform="translate(-521.829 -59.471)" fill="#fff"/>
      <path id="XMLID_156_" d="M555.788,88.788v6.663h4.96v.888h-4.96v8.366h6v.888H554.9V87.9h6.885v.888Z" transform="translate(-525.361 -59.471)" fill="#fff"/>
      <path id="XMLID_158_" d="M570.435,98.117h-2.147v7.4H567.4V87.9h3.183a3.315,3.315,0,0,1,1.481.3,3.383,3.383,0,0,1,1.185.814,4.231,4.231,0,0,1,.814,1.185,3.314,3.314,0,0,1,.3,1.481v2.739a3.456,3.456,0,0,1-.222,1.259,4.418,4.418,0,0,1-.666,1.111,5.1,5.1,0,0,1-.962.814,3.272,3.272,0,0,1-1.185.444l3.183,7.477h-.888Zm-2.147-.888h2.295a2.971,2.971,0,0,0,1.111-.222,2.662,2.662,0,0,0,.888-.592,3.1,3.1,0,0,0,.592-.888,2.971,2.971,0,0,0,.222-1.111V91.676a2.971,2.971,0,0,0-.222-1.111,2.663,2.663,0,0,0-.592-.888,3.1,3.1,0,0,0-.888-.592,2.971,2.971,0,0,0-1.111-.222h-2.295Z" transform="translate(-528.606 -59.471)" fill="#fff"/>
      <path id="XMLID_161_" d="M580.9,105.52V87.9h.888v17.62Z" transform="translate(-532.112 -59.471)" fill="#fff"/>
      <path id="XMLID_163_" d="M586.888,88.788v6.663h4.96v.888h-4.96v8.366h6v.888H586V87.9h6.885v.888Z" transform="translate(-533.436 -59.471)" fill="#fff"/>
      <path id="XMLID_165_" d="M605.729,87.9v17.62h-.888l-5.553-15.251V105.52H598.4V87.9h.888l5.553,15.251V87.9Z" transform="translate(-536.656 -59.471)" fill="#fff"/>
      <path id="XMLID_167_" d="M615.95,104.754a2.971,2.971,0,0,0,1.11-.222,2.663,2.663,0,0,0,.888-.592,3.1,3.1,0,0,0,.592-.888,2.971,2.971,0,0,0,.222-1.111h.888a3.314,3.314,0,0,1-.3,1.481,3.382,3.382,0,0,1-.814,1.185,4.231,4.231,0,0,1-1.185.814,3.85,3.85,0,0,1-2.961,0,3.383,3.383,0,0,1-1.185-.814,4.231,4.231,0,0,1-.814-1.185,3.314,3.314,0,0,1-.3-1.481V91.576a3.313,3.313,0,0,1,.3-1.481,3.382,3.382,0,0,1,.814-1.185,4.231,4.231,0,0,1,1.185-.814,3.85,3.85,0,0,1,2.961,0,3.947,3.947,0,0,1,2,2,3.314,3.314,0,0,1,.3,1.481h-.888a2.971,2.971,0,0,0-.222-1.11,2.663,2.663,0,0,0-.592-.888,3.1,3.1,0,0,0-.888-.592,2.887,2.887,0,0,0-2.221,0,2.662,2.662,0,0,0-.888.592,3.1,3.1,0,0,0-.592.888,2.968,2.968,0,0,0-.222,1.11v10.291a2.7,2.7,0,0,0,.222,1.111,4.2,4.2,0,0,0,.592.962,3.1,3.1,0,0,0,.888.592A2.971,2.971,0,0,0,615.95,104.754Z" transform="translate(-540.213 -59.445)" fill="#fff"/>
      <path id="XMLID_169_" d="M627.188,88.788v6.663h4.96v.888h-4.96v8.366h6v.888H626.3V87.9h6.885v.888Z" transform="translate(-543.9 -59.471)" fill="#fff"/>
    </g>
  </g>
</svg>
